<?xml version="1.0" standalone="no"?><!DOCTYPE svg PUBLIC "-//W3C//DTD SVG 1.1//EN" "http://www.w3.org/Graphics/SVG/1.1/DTD/svg11.dtd"><svg t="1757107044930" class="icon" viewBox="0 0 1024 1024" version="1.1" xmlns="http://www.w3.org/2000/svg" p-id="4537" xmlns:xlink="http://www.w3.org/1999/xlink" width="200" height="200"><path d="M42.666667 192v640Q42.666667 938.666667 149.333333 938.666667h384a42.666667 42.666667 0 1 0 0-85.333334h-384q-21.333333 0-21.333333-21.333333V426.666667h768v62.72a42.666667 42.666667 0 1 0 85.333333 0V192Q981.333333 85.333333 874.666667 85.333333h-725.333334Q42.666667 85.333333 42.666667 192zM896 341.333333V192q0-8.832-6.229333-15.104Q883.498667 170.666667 874.666667 170.666667h-725.333334q-8.832 0-15.104 6.229333Q128 183.168 128 192V341.333333h768zM170.666667 256q0-4.181333 0.853333-8.32 0.768-4.138667 2.389333-8.021333 1.621333-3.84 3.968-7.381334 2.304-3.456 5.290667-6.442666 2.986667-2.986667 6.442667-5.290667 3.498667-2.346667 7.381333-3.968 3.882667-1.621333 8.021333-2.432Q209.152 213.333333 213.333333 213.333333t8.32 0.853334q4.138667 0.768 8.021334 2.389333 3.84 1.621333 7.381333 3.968 3.456 2.304 6.442667 5.290667 2.986667 2.986667 5.290666 6.442666 2.346667 3.498667 3.968 7.381334 1.621333 3.882667 2.432 8.021333Q256 251.818667 256 256t-0.853333 8.32q-0.768 4.138667-2.389334 8.021333-1.621333 3.84-3.968 7.381334-2.304 3.456-5.290666 6.442666-2.986667 2.986667-6.442667 5.290667-3.498667 2.346667-7.381333 3.968-3.882667 1.621333-8.021334 2.432Q217.514667 298.666667 213.333333 298.666667t-8.32-0.853334q-4.138667-0.768-8.021333-2.389333-3.84-1.621333-7.381333-3.968-3.456-2.304-6.442667-5.290667-2.986667-2.986667-5.290667-6.442666-2.346667-3.498667-3.968-7.381334-1.621333-3.882667-2.432-8.021333Q170.666667 260.181333 170.666667 256z m128 0q0-4.181333 0.853333-8.32 0.768-4.138667 2.389333-8.021333 1.621333-3.84 3.968-7.381334 2.304-3.456 5.290667-6.442666 2.986667-2.986667 6.442667-5.290667 3.498667-2.346667 7.381333-3.968 3.882667-1.621333 8.021333-2.432Q337.152 213.333333 341.333333 213.333333t8.32 0.853334q4.138667 0.768 8.021334 2.389333 3.84 1.621333 7.381333 3.968 3.456 2.304 6.442667 5.290667 2.986667 2.986667 5.290666 6.442666 2.346667 3.498667 3.968 7.381334 1.621333 3.882667 2.432 8.021333Q384 251.818667 384 256t-0.853333 8.32q-0.768 4.138667-2.389334 8.021333-1.621333 3.84-3.968 7.381334-2.304 3.456-5.290666 6.442666-2.986667 2.986667-6.442667 5.290667-3.498667 2.346667-7.381333 3.968-3.882667 1.621333-8.021334 2.432Q345.514667 298.666667 341.333333 298.666667t-8.32-0.853334q-4.138667-0.768-8.021333-2.389333-3.84-1.621333-7.381333-3.968-3.456-2.304-6.442667-5.290667-2.986667-2.986667-5.290667-6.442666-2.346667-3.498667-3.968-7.381334-1.621333-3.882667-2.432-8.021333Q298.666667 260.181333 298.666667 256z m512 362.666667a42.666667 42.666667 0 0 0-42.666667 42.666666v85.333334h-85.333333a42.666667 42.666667 0 1 0 0 85.333333h85.333333v85.333333a42.666667 42.666667 0 1 0 85.333333 0v-85.333333h85.333334a42.666667 42.666667 0 1 0 0-85.333333h-85.333334v-85.333334a42.666667 42.666667 0 0 0-42.666666-42.666666z" p-id="4538"></path></svg>